<?xml version="1.0" standalone="no"?>
<!DOCTYPE svg PUBLIC "-//W3C//DTD SVG 20010904//EN"
 "http://www.w3.org/TR/2001/REC-SVG-20010904/DTD/svg10.dtd">
<svg version="1.0" xmlns="http://www.w3.org/2000/svg"
 width="700.000000pt" height="700.000000pt" viewBox="0 0 700.000000 700.000000"
 preserveAspectRatio="xMidYMid meet">
<metadata>
Created by potrace 1.14, written by Peter Selinger 2001-2017
</metadata>
<g transform="translate(0.000000,700.000000) scale(0.100000,-0.100000)"
fill="#000000" stroke="none">
<path d="M0 3500 l0 -3500 3500 0 3500 0 0 3500 0 3500 -3500 0 -3500 0 0
-3500z m5514 2865 c100 -18 195 -51 272 -97 l54 -33 0 -132 c0 -73 -2 -133 -5
-133 -3 0 -31 21 -63 47 -182 148 -437 186 -626 91 -207 -104 -309 -397 -293
-843 13 -377 106 -594 291 -685 141 -69 338 -67 462 6 l44 26 0 269 0 269
-145 0 -145 0 0 110 0 110 275 0 275 0 0 -424 0 -424 -45 -40 c-61 -54 -187
-118 -282 -144 -111 -30 -315 -29 -428 1 -320 85 -515 349 -570 768 -38 288
-2 609 90 817 149 336 471 505 839 441z m-3184 -135 l0 -110 -207 -2 -208 -3
-3 -767 -2 -768 210 0 210 0 0 -115 0 -115 -555 0 -555 0 0 115 0 115 210 0
210 0 0 770 0 770 -210 0 -210 0 0 110 0 110 555 0 555 0 0 -110z m-823 -3562
c44 -128 122 -356 173 -506 54 -159 96 -268 100 -260 4 7 83 235 175 506 l168
492 179 0 178 0 0 -995 0 -995 -125 0 -125 0 -2 866 -3 867 -134 -399 c-74
-220 -152 -450 -174 -511 l-39 -113 -102 0 -103 0 -174 514 -174 514 -3 -869
-2 -869 -125 0 -125 0 0 995 0 995 179 0 179 0 79 -232z m3744 217 c276 -41
446 -182 494 -410 18 -83 19 -204 4 -277 -35 -164 -157 -293 -318 -334 l-68
-18 57 -27 c124 -59 163 -115 394 -576 91 -183 166 -335 166 -338 0 -3 -62 -5
-139 -5 -99 0 -141 4 -148 13 -6 6 -70 138 -142 292 -147 312 -201 406 -267
464 -71 62 -113 73 -311 78 l-173 5 -2 -423 -3 -424 -132 -3 -133 -3 0 1001 0
1000 313 0 c220 0 340 -4 408 -15z"/>
<path d="M4800 2324 l0 -356 213 4 c193 4 217 6 270 27 110 43 167 118 187
247 20 127 -7 236 -78 315 -84 94 -176 118 -439 119 l-153 0 0 -356z"/>
</g>
</svg>
