<?xml version="1.0" encoding="UTF-8" standalone="no"?>
<svg
   xmlns:dc="http://purl.org/dc/elements/1.1/"
   xmlns:cc="http://creativecommons.org/ns#"
   xmlns:rdf="http://www.w3.org/1999/02/22-rdf-syntax-ns#"
   xmlns:svg="http://www.w3.org/2000/svg"
   xmlns="http://www.w3.org/2000/svg"
   viewBox="0 0 360 36"
   height="36"
   width="360"
   xml:space="preserve"
   id="svg2"
   version="1.1"><metadata
     id="metadata8"><rdf:RDF><cc:Work
         rdf:about=""><dc:format>image/svg+xml</dc:format><dc:type
           rdf:resource="http://purl.org/dc/dcmitype/StillImage" /></cc:Work></rdf:RDF></metadata><defs
     id="defs6" /><g
     transform="matrix(1.3333333,0,0,-1.3333333,0,36)"
     id="g10"><g
       transform="scale(0.1)"
       id="g12"><path
         id="path14"
         style="fill:#ffffff;fill-opacity:1;fill-rule:nonzero;stroke:none"
         d="m 436.559,7.53906 h 3.75 v 259.922 h -3.75 z" /><path
         id="path16"
         style="fill:#ffcb05;fill-opacity:1;fill-rule:nonzero;stroke:none"
         d="M 181.762,52.8906 107.301,154.609 V 80.5898 h 29.578 V 7.53906 H 0 V 80.5898 H 27.7305 V 194.379 H 0 v 73.082 h 107.539 l 74.223,-102.5 74.218,102.5 h 107.5 V 194.379 H 335.738 V 80.5898 H 363.48 V 7.53906 H 226.602 V 80.5898 h 29.57 v 74.0192 z" /><path
         id="path18"
         style="fill:#ffffff;fill-opacity:1;fill-rule:nonzero;stroke:none"
         d="m 596.84,42.4609 c 0,-7.9296 -1.059,-14.1796 -3.25,-18.75 -2.141,-4.5312 -5.391,-8.0117 -9.68,-10.4296 C 579.57,10.8984 574.77,9.33984 569.488,8.58984 564.219,7.89063 558.199,7.53906 551.48,7.53906 H 515.121 V 267.461 h 50.777 c 5.981,0 10.903,-0.981 14.762,-2.891 3.828,-1.91 6.961,-4.57 9.34,-7.929 2.422,-3.36 3.871,-7.071 4.34,-11.172 0.461,-4.059 0.93,-8.008 1.441,-11.879 v -61.91 c 0,-10.078 -1.91,-17.149 -5.781,-21.25 -3.828,-4.059 -10.551,-6.481 -20.16,-7.192 5.781,-0.968 10.32,-2.027 13.68,-3.238 3.359,-1.211 6.128,-2.77 8.281,-4.691 2.179,-1.911 3.469,-4.528 3.98,-7.887 0.469,-3.363 0.821,-7.344 1.059,-11.91 z M 571.988,226.762 c 0,7.687 -1.519,12.968 -4.648,15.859 -3.121,2.848 -8.512,4.289 -16.211,4.289 H 538.52 v -94.289 h 11.171 c 8.86,0 14.758,1.168 17.649,3.59 2.859,2.379 4.422,7.418 4.648,15.117 z M 573.09,115.16 c 0,4.57 -0.711,8.512 -2.149,11.871 -1.211,2.66 -3.48,4.34 -6.839,5.039 -3.364,0.739 -9.372,1.211 -18.012,1.45 h -7.57 V 28.0508 h 14.41 c 6.718,0 11.761,1.0898 15.121,3.2383 3.359,2.1523 5.039,6.9492 5.039,14.4101 z" /><path
         id="path20"
         style="fill:#ffffff;fill-opacity:1;fill-rule:nonzero;stroke:none"
         d="m 633.949,7.53906 h 23.75 v 259.922 h -23.75 z" /><path
         id="path22"
         style="fill:#ffffff;fill-opacity:1;fill-rule:nonzero;stroke:none"
         d="m 777.578,43.1602 c 0,-13.1993 -3.988,-22.8086 -11.879,-28.7813 -7.929,-6.01952 -17.769,-9.02734 -29.527,-9.02734 -13.442,0 -23.633,3.59766 -30.582,10.82034 -7,7.1875 -10.59,17.7383 -10.82,31.6797 V 226.41 c 0,15.11 3.242,26.168 9.718,33.121 6.492,6.949 17.032,10.43 31.684,10.43 27.617,0 41.406,-14.762 41.406,-44.262 z M 753.828,223.52 c 0,9.371 -1.328,16.21 -3.988,20.539 -2.61,4.3 -7.07,6.562 -13.32,6.839 -3.821,0 -6.829,-0.738 -8.981,-2.187 -2.187,-1.441 -3.988,-3.481 -5.391,-6.09 -1.449,-2.66 -2.418,-5.43 -2.886,-8.281 -0.473,-2.891 -0.742,-6.02 -0.742,-9.379 V 47.8516 c 0,-15.1211 5.539,-22.6914 16.558,-22.6914 12.5,0 18.75,8.2812 18.75,24.8398 z" /><path
         id="path24"
         style="fill:#ffffff;fill-opacity:1;fill-rule:nonzero;stroke:none"
         d="M 918.672,7.53906 V 248.359 L 890.621,7.53906 H 861.09 L 834.102,248.359 V 7.53906 H 812.5 V 267.461 h 37.07 L 876.211,35.5898 903.949,267.461 H 940.27 V 7.53906 Z" /><path
         id="path26"
         style="fill:#ffffff;fill-opacity:1;fill-rule:nonzero;stroke:none"
         d="M 974.84,7.53906 V 267.461 h 63.01 V 246.91 h -39.26 v -94.289 h 37.46 V 132.07 H 998.59 V 28.0508 h 39.61 V 7.53906 Z" /><path
         id="path28"
         style="fill:#ffffff;fill-opacity:1;fill-rule:nonzero;stroke:none"
         d="m 1149.8,47.8516 c 0,-8.4024 -1.21,-15.2305 -3.59,-20.5508 -2.38,-5.2695 -5.51,-9.332 -9.37,-12.2227 -3.83,-2.8867 -8.52,-4.8086 -14.03,-5.73826 -5.51,-0.98046 -11.17,-1.57031 -16.91,-1.80078 h -37.07 V 267.461 h 40.31 c 15.12,0 25.66,-3.512 31.68,-10.473 5.98,-6.949 8.98,-17.5 8.98,-31.679 z M 1126.05,226.41 c 0,7.93 -1.44,13.32 -4.33,16.211 -2.85,2.848 -8.4,4.289 -16.56,4.289 h -12.58 V 28.0508 h 8.98 c 9.61,0 16.1,1.4375 19.46,4.3281 3.36,2.8516 5.03,8.5195 5.03,16.9219 z" /><path
         id="path30"
         style="fill:#ffffff;fill-opacity:1;fill-rule:nonzero;stroke:none"
         d="m 1187.62,7.53906 h 23.75 v 259.922 h -23.75 z" /><path
         id="path32"
         style="fill:#ffffff;fill-opacity:1;fill-rule:nonzero;stroke:none"
         d="m 1321.88,42.8086 c 0,-10.5781 -2.86,-19.4492 -8.64,-26.6367 -5.74,-7.22268 -15.35,-10.82034 -28.79,-10.82034 -7.18,0 -13.08,0.97657 -17.65,2.88672 -4.53,1.92192 -8.28,4.69142 -11.14,8.28122 -2.89,3.6016 -4.92,7.4297 -6.13,11.5313 -1.21,4.0586 -1.8,8.75 -1.8,14.0195 V 235.781 c 0,4.297 0.71,8.52 2.15,12.578 1.45,4.102 3.6,7.692 6.49,10.821 2.89,3.09 6.6,5.742 11.17,7.89 4.57,2.192 10.08,3.129 16.56,2.891 6.95,0 12.81,-0.941 17.62,-2.891 4.8,-1.91 8.63,-4.648 11.52,-8.281 2.89,-3.59 5.04,-7.66 6.49,-12.23 1.44,-4.571 2.15,-9.489 2.15,-14.758 V 199.77 h -23.76 v 32.378 c 0,4.571 -0.58,8.793 -1.79,12.622 -1.21,3.82 -4.81,5.851 -10.78,6.128 -3.13,0 -5.55,-0.628 -7.23,-1.796 -1.68,-1.211 -3.12,-2.774 -4.3,-4.692 -1.21,-1.91 -1.79,-4.211 -1.79,-6.832 0,-2.656 -0.28,-5.039 -0.75,-7.226 V 41.0195 c 0,-11.0586 4.11,-16.5703 12.23,-16.5703 9.61,0 14.41,5.9805 14.41,18.0117 v 36.3282 h 23.76 z" /><path
         id="path34"
         style="fill:#ffffff;fill-opacity:1;fill-rule:nonzero;stroke:none"
         d="m 1420.16,7.53906 -10.08,72.33984 h -42.11 l -9.38,-72.33984 h -23.75 l 38.87,259.92194 h 32.77 L 1443.95,7.53906 Z M 1389.92,249.449 1370.51,99.6914 h 37.07 z" /><path
         id="path36"
         style="fill:#ffffff;fill-opacity:1;fill-rule:nonzero;stroke:none"
         d="M 1468.79,7.53906 V 267.461 h 23.75 V 28.0508 h 38.87 V 7.53906 Z" /><path
         id="path38"
         style="fill:#ffffff;fill-opacity:1;fill-rule:nonzero;stroke:none"
         d="M 1610.98,7.53906 V 267.461 h 63 V 246.91 h -39.25 v -94.289 h 37.46 V 132.07 h -37.46 V 28.0508 h 39.61 V 7.53906 Z" /><path
         id="path40"
         style="fill:#ffffff;fill-opacity:1;fill-rule:nonzero;stroke:none"
         d="M 1754.26,7.53906 1723.63,238.281 V 7.53906 h -20.51 V 267.461 h 34.22 L 1767.23,45.6992 V 267.461 h 20.86 V 7.53906 Z" /><path
         id="path42"
         style="fill:#ffffff;fill-opacity:1;fill-rule:nonzero;stroke:none"
         d="m 1906.88,13.6289 c -5.98,-1.9101 -12,-3.70702 -17.97,-5.39062 -6.02,-1.67969 -12.5,-2.64844 -19.46,-2.88672 -15.86,0 -27.22,3.59766 -34.22,10.82034 -6.95,7.1875 -10.43,17.7383 -10.43,31.6797 V 228.91 c 0,13.469 3.48,23.668 10.43,30.621 7,6.949 17.31,10.43 30.98,10.43 7.42,0 13.67,-0.941 18.71,-2.891 5.04,-1.91 9.26,-4.531 12.62,-7.89 3.36,-3.36 5.74,-7.231 7.19,-11.52 1.44,-4.34 2.15,-8.91 2.15,-13.711 V 199.77 h -23.76 v 25.929 c 0,16.531 -5.5,24.813 -16.56,24.813 -3.83,0 -6.95,-0.711 -9.33,-2.153 -2.43,-1.449 -4.22,-3.359 -5.43,-5.738 -1.18,-2.422 -2.03,-5.16 -2.5,-8.281 -0.47,-3.129 -0.75,-6.25 -0.75,-9.379 V 50.7383 c 0,-17.5391 7,-26.2891 20.9,-26.2891 4.07,0 8.64,1.1719 13.67,3.6016 V 115.16 h -19.06 v 19.801 h 42.82 z" /><path
         id="path44"
         style="fill:#ffffff;fill-opacity:1;fill-rule:nonzero;stroke:none"
         d="m 1943.59,7.53906 h 23.7891 v 259.922 H 1943.59 Z" /><path
         id="path46"
         style="fill:#ffffff;fill-opacity:1;fill-rule:nonzero;stroke:none"
         d="M 2054.49,7.53906 2023.91,238.281 V 7.53906 h -20.55 V 267.461 h 34.22 L 2067.46,45.6992 V 267.461 h 20.86 V 7.53906 Z" /><path
         id="path48"
         style="fill:#ffffff;fill-opacity:1;fill-rule:nonzero;stroke:none"
         d="M 2124.34,7.53906 V 267.461 h 63 V 246.91 h -39.25 v -94.289 h 37.46 V 132.07 h -37.46 V 28.0508 h 39.61 V 7.53906 Z" /><path
         id="path50"
         style="fill:#ffffff;fill-opacity:1;fill-rule:nonzero;stroke:none"
         d="M 2217.58,7.53906 V 267.461 h 63.01 V 246.91 h -39.26 v -94.289 h 37.46 V 132.07 h -37.46 V 28.0508 h 39.61 V 7.53906 Z" /><path
         id="path52"
         style="fill:#ffffff;fill-opacity:1;fill-rule:nonzero;stroke:none"
         d="M 2368.4,7.53906 V 118.051 c 0,9.609 -5.16,14.41 -15.47,14.41 h -18.01 V 7.53906 h -23.75 V 267.461 h 48.95 c 10.82,0 18.59,-2.77 23.4,-8.281 4.8,-5.551 7.22,-13.59 7.22,-24.141 V 170.59 c 0,-9.11 -1.91,-15.82 -5.78,-20.16 -3.83,-4.301 -10.19,-6.95 -19.06,-7.891 11.01,0 18.24,-2.66 21.6,-7.93 3.36,-5.269 5.04,-13.089 5.04,-23.398 V 7.53906 Z m -1.45,222.81294 c 0,6.25 -0.93,10.589 -2.85,12.968 -1.91,2.418 -5.66,3.59 -11.17,3.59 h -18.01 v -93.941 h 14.77 c 6.25,0 10.66,1.211 13.32,3.59 2.65,2.39 3.94,6.722 3.94,12.972 z" /><path
         id="path54"
         style="fill:#ffffff;fill-opacity:1;fill-rule:nonzero;stroke:none"
         d="m 2430.31,7.53906 h 23.793 v 259.922 h -23.793 z" /><path
         id="path56"
         style="fill:#ffffff;fill-opacity:1;fill-rule:nonzero;stroke:none"
         d="M 2541.21,7.53906 2510.62,238.281 V 7.53906 h -20.54 V 267.461 h 34.22 L 2554.18,45.6992 V 267.461 h 20.86 V 7.53906 Z" /><path
         id="path58"
         style="fill:#ffffff;fill-opacity:1;fill-rule:nonzero;stroke:none"
         d="m 2693.87,13.6289 c -6.02,-1.9101 -12.03,-3.70702 -18.01,-5.39062 -6.02,-1.67969 -12.5,-2.64844 -19.45,-2.88672 -15.82,0 -27.23,3.59766 -34.18,10.82034 -7,7.1875 -10.47,17.7383 -10.47,31.6797 V 228.91 c 0,13.469 3.47,23.668 10.47,30.621 6.95,6.949 17.26,10.43 30.93,10.43 7.46,0 13.68,-0.941 18.72,-2.891 5.03,-1.91 9.25,-4.531 12.61,-7.89 3.36,-3.36 5.74,-7.231 7.19,-11.52 1.44,-4.34 2.19,-8.91 2.19,-13.711 V 199.77 h -23.79 v 25.929 c 0,16.531 -5.51,24.813 -16.56,24.813 -3.83,0 -6.96,-0.711 -9.34,-2.153 -2.42,-1.449 -4.22,-3.359 -5.39,-5.738 -1.21,-2.422 -2.07,-5.16 -2.54,-8.281 -0.47,-3.129 -0.7,-6.25 -0.7,-9.379 V 50.7383 c 0,-17.5391 6.95,-26.2891 20.86,-26.2891 4.1,0 8.63,1.1719 13.67,3.6016 V 115.16 h -19.06 v 19.801 h 42.85 z" /></g></g></svg>