<svg width="238.7pt" height="27.93pt" version="1.1" viewBox="0 0 238.7 27.93" xmlns="http://www.w3.org/2000/svg">
    <defs>
        <clipPath id="clip-0">
            <path d="m0 0h39v27.93h-39z"/>
        </clipPath>
        <clipPath id="clip-1">
            <path d="m54 0h10v27.93h-10z"/>
        </clipPath>
        <clipPath id="clip-2">
            <path d="m65 0h8v27.93h-8z"/>
        </clipPath>
        <clipPath id="clip-3">
            <path d="m75 0h8v27.93h-8z"/>
        </clipPath>
        <clipPath id="clip-4">
            <path d="m85 0h8v27.93h-8z"/>
        </clipPath>
        <clipPath id="clip-5">
            <path d="m95 0h10v27.93h-10z"/>
        </clipPath>
        <clipPath id="clip-6">
            <path d="m108 0h10v27.93h-10z"/>
        </clipPath>
        <clipPath id="clip-7">
            <path d="m121 0h10v27.93h-10z"/>
        </clipPath>
        <clipPath id="clip-8">
            <path d="m139 0h8v27.93h-8z"/>
        </clipPath>
        <clipPath id="clip-9">
            <path d="m148 0h11v27.93h-11z"/>
        </clipPath>
        <clipPath id="clip-10">
            <path d="m160 0h8v27.93h-8z"/>
        </clipPath>
        <clipPath id="clip-11">
            <path d="m176 0h9v27.93h-9z"/>
        </clipPath>
        <clipPath id="clip-12">
            <path d="m187 0h7v27.93h-7z"/>
        </clipPath>
        <clipPath id="clip-13">
            <path d="m197 0h9v27.93h-9z"/>
        </clipPath>
        <clipPath id="clip-14">
            <path d="m208 0h10v27.93h-10z"/>
        </clipPath>
        <clipPath id="clip-15">
            <path d="m220 0h7v27.93h-7z"/>
        </clipPath>
        <clipPath id="clip-16">
            <path d="m230 0h8.6992v27.93h-8.6992z"/>
        </clipPath>
        <clipPath id="clip-17">
            <path d="m45 0h2v27.93h-2z"/>
        </clipPath>
    </defs>
    <g clip-path="url(#clip-0)">
        <path d="m19.387 23.047-7.9414-10.852v7.8945h3.1562v7.793h-14.602v-7.793h2.9609v-12.137h-2.9609v-7.793h11.473l7.9141 10.93 7.918-10.93h11.465v7.793h-2.957v12.137h2.957v7.793h-14.598v-7.793h3.1523v-7.8945l-7.9375 10.852" fill="#fbcb06"/>
    </g>
    <g clip-path="url(#clip-1)">
        <path d="m57.438 0.26953v11.777l3.1133-11.777h2.5078l-3.6094 12.539 3.9531 14.895h-2.4688l-3.4961-13.719v13.719h-2.5078v-27.434h2.5078" fill="#fff"/>
    </g>
    <g clip-path="url(#clip-2)">
        <path d="m72.332 0.26953v2.168h-4.1406v9.9531h3.9492v2.1641h-3.9492v10.98h4.1797v2.168h-6.6875v-27.434h6.6484" fill="#fff"/>
    </g>
    <g clip-path="url(#clip-3)">
        <path d="m78.297 0.26953v25.266h4.1055v2.168h-6.6133v-27.434h2.5078" fill="#fff"/>
    </g>
    <g clip-path="url(#clip-4)">
        <path d="m88.328 0.26953v25.266h4.1055v2.168h-6.6133v-27.434h2.5078" fill="#fff"/>
    </g>
    <g clip-path="url(#clip-5)">
        <path d="m98.285 23.484c0 1.5195 0.53125 2.3555 1.7461 2.3555 1.3672 0 1.9766-0.91016 1.9766-2.582v-18.43c0-2.6211-1.1016-2.8086-1.8594-2.8086-1.1797 0-1.8633 0.87109-1.8633 2.6562zm6.2305 0.53125c0 2.3555-1.5938 3.9141-4.3672 3.9141-2.8906 0-4.3711-1.7109-4.3711-4.4453v-18.922c0-2.9258 1.1758-4.5586 4.3711-4.5586 3.1133 0 4.3672 1.6719 4.3672 4.6719v19.34" fill="#fff"/>
    </g>
    <g clip-path="url(#clip-6)">
        <path d="m117.4 7.4141h-2.5078v-2.7734c0-1.5586-0.45703-2.5859-1.7461-2.5859-1.2539 0-1.9023 0.80078-1.9023 2.6211v18.465c0 1.7109 0.68359 2.7773 2.2031 2.7773 0.45703 0 0.875-0.11719 1.4453-0.38281v-9.1953h-2.0117v-2.0898h4.5195v12.805c-1.2539 0.41797-2.4688 0.875-3.9531 0.875-3.3438 0-4.7109-1.6719-4.7109-4.4844v-19.109c0-2.7344 1.4453-4.332 4.3711-4.332 3.1523 0 4.293 1.8633 4.293 3.8008v3.6094" fill="#fff"/>
    </g>
    <g clip-path="url(#clip-7)">
        <path d="m130.24 7.4141h-2.5078v-2.7734c0-1.5586-0.45703-2.5859-1.7461-2.5859-1.2539 0-1.9023 0.80078-1.9023 2.6211v18.465c0 1.7109 0.68359 2.7773 2.2031 2.7773 0.45703 0 0.875-0.11719 1.4453-0.38281v-9.1953h-2.0156v-2.0898h4.5234v12.805c-1.2539 0.41797-2.4688 0.875-3.9531 0.875-3.3438 0-4.7109-1.6719-4.7109-4.4844v-19.109c0-2.7344 1.4453-4.332 4.3711-4.332 3.1523 0 4.293 1.8633 4.293 3.8008v3.6094" fill="#fff"/>
    </g>
    <g clip-path="url(#clip-8)">
        <path d="m146.54 0.26953v2.168h-4.1406v9.9531h3.9531v2.1641h-3.9531v10.98h4.1797v2.168h-6.6875v-27.434h6.6484" fill="#fff"/>
    </g>
    <g clip-path="url(#clip-9)">
        <path d="m150.95 0.26953 2.3906 12.461 2.4336-12.461h2.4297l-3.7227 15.504v11.93h-2.5078l-0.035156-11.93-3.6484-15.504h2.6602" fill="#fff"/>
    </g>
    <g clip-path="url(#clip-10)">
        <path d="m167.32 0.26953v2.168h-4.1406v9.9531h3.9531v2.1641h-3.9531v10.98h4.1797v2.168h-6.6875v-27.434h6.6484" fill="#fff"/>
    </g>
    <g clip-path="url(#clip-11)">
        <path d="m184.1 7.4141h-2.5078v-3.5352c0-1.2539-0.38281-1.8594-1.332-1.8594-1.0234 0-1.4805 0.71875-1.4805 2.0859v20.062c0 0.94922 0.30469 1.75 1.293 1.75 1.0625 0 1.5195-0.72266 1.5195-1.8633v-3.875h2.5078v3.7617c0 2.4688-1.332 3.9883-3.9531 3.9883-2.582 0-3.875-1.4062-3.875-3.875v-20.402c0-2.0156 1.293-3.6484 3.8359-3.6484 2.6211 0 3.9922 1.5195 3.9922 4.0273v3.3828" fill="#fff"/>
    </g>
    <g clip-path="url(#clip-12)">
        <path d="m193.75 0.26953v2.168h-4.1445v9.9531h3.9531v2.1641h-3.9531v10.98h4.1797v2.168h-6.6875v-27.434h6.6523" fill="#fff"/>
    </g>
    <g clip-path="url(#clip-13)">
        <path d="m200.63 0.26953 3.1562 23.406v-23.406h2.2031v27.434h-3.5742l-3.2266-24.355v24.355h-2.168v-27.434h3.6094" fill="#fff"/>
    </g>
    <g clip-path="url(#clip-14)">
        <path d="m217.01 0.26953v2.168h-2.8516v25.266h-2.5078v-25.266h-2.8086v-2.168h8.168" fill="#fff"/>
    </g>
    <g clip-path="url(#clip-15)">
        <path d="m226.7 0.26953v2.168h-4.1406v9.9531h3.9531v2.1641h-3.9531v10.98h4.1797v2.168h-6.6875v-27.434h6.6484" fill="#fff"/>
    </g>
    <g clip-path="url(#clip-16)">
        <path d="m232.62 12.352h1.5586c1.5195 0 1.8242-0.60547 1.8242-1.8242v-6.2695c0-1.1367-0.19141-1.8203-1.4844-1.8203h-1.8984zm2.6992-12.082c2.2773 0 3.1914 1.3672 3.1914 3.3828v6.875c0 1.75-0.72266 2.7734-2.6211 2.9258 1.9727 0 2.8086 0.79688 2.8086 3.1914v11.059h-2.543v-11.664c0-0.98828-0.49609-1.5195-1.6367-1.5195h-1.8984v13.184h-2.5078v-27.434h5.207" fill="#fff"/>
    </g>
    <g clip-path="url(#clip-17)">
        <path d="m46.59 27.816h-0.75v-27.543h0.75v27.543" fill="#fff"/>
    </g>
</svg>
